PathFileType	4	(X/Y/Z)	Patient4_TMGait_0pt7_01_left_47.trc.trc
DataRate	CameraRate	NumFrames	NumMarkers	Units	OrigDataRate	OrigDataStartFrame	OrigNumFrames
84.337349397590	84.337349397590	4	33	mm	84.337349397590	124	       141
Frame#	Time	Sacral			L.Shoulder			Chest			R.Shoulder			Neck			R.ASIS			L.ASIS			R.Thigh.Superior			R.Thigh.Lateral			R.Thigh.Inferior			R.Patella			L.Thigh.Superior			L.Thigh.Lateral			L.Thigh.Inferior			L.Patella			L.Shank.Superior			L.Shank.Lateral			L.Shank.Inferior			R.Shank.Superior			R.Shank.Lateral			R.Shank.Inferior			R.Heel			R.Midfoot.Superior			R.Midfoot.Lateral			R.Toe			L.Heel			L.Midfoot.Lateral			L.Midfoot.Superior			L.Toe			L.Elbow			L.Wrist			R.Elbow			R.Wrist			
		X1	Y1	Z1	X2	Y2	Z2	X3	Y3	Z3	X4	Y4	Z4	X5	Y5	Z5	X6	Y6	Z6	X7	Y7	Z7	X8	Y8	Z8	X9	Y9	Z9	X10	Y10	Z10	X11	Y11	Z11	X12	Y12	Z12	X13	Y13	Z13	X14	Y14	Z14	X15	Y15	Z15	X16	Y16	Z16	X17	Y17	Z17	X18	Y18	Z18	X19	Y19	Z19	X20	Y20	Z20	X21	Y21	Z21	X22	Y22	Z22	X23	Y23	Z23	X24	Y24	Z24	X25	Y25	Z25	X26	Y26	Z26	X27	Y27	Z27	X28	Y28	Z28	X29	Y29	Z29	X30	Y30	Z30	X31	Y31	Z31	X32	Y32	Z32	X33	Y33	Z33	

124	56.008428571429	843.682733455304	1000.913038752400	534.073948798322	1020.867062042416	1424.006627313810	347.445107332231	1135.118832265349	1346.766601898738	498.077144558055	1068.064066261219	1423.130013654405	677.943195439095	1038.408926157985	1480.740841454200	503.040613114279	1069.700460568168	933.412040652011	647.020001578170	1051.187035743377	941.633884032866	371.505746442605	1062.234685698056	719.136984376611	624.739011930786	953.022154353987	629.129214208342	685.011532525874	1012.334399431413	560.502535352525	607.052794048413	989.810008259840	475.598260132130	610.812606769308	1122.814112838691	762.062003347201	403.967420521420	1075.930832597210	632.510250119280	323.844629701741	1182.261488174892	577.603224719278	383.862894067721	1209.130117678773	512.685201245979	381.777601687144	1194.571592657811	440.186496461650	370.382097954564	1130.808442639507	309.373842859275	320.187081639107	1220.759816810265	212.312143222180	373.322161688679	949.060219848785	393.411231032771	617.918015314862	862.474918065530	301.781218950745	680.682704888636	888.155209073458	202.097683431641	615.164731015201	734.074259361054	45.448965887528	587.363881583218	908.482203926350	97.419692556070	618.589935901780	819.635558786609	37.427165184930	658.704284797690	1027.628551795053	41.000419951187	640.981934827392	1137.943691312814	38.817856877697	410.735860941137	1212.020513224742	40.820278055932	330.402310028604	1286.332337139982	112.632997693440	352.911371595344	1418.494243857314	75.677592447958	326.647947319359	848.273096460029	1125.625701710148	242.238889382875	789.206000537469	869.752122172138	250.569374515352	1218.821183811833	1123.592620010913	787.082686939309	1406.464282532278	1244.513825568097	675.168730016723	
125	56.020285714286	844.851586308929	999.249023844801	531.556152152826	1020.087249465775	1422.959793388825	345.011227957958	1134.629887457331	1346.194620747354	495.707844402782	1066.943629070887	1422.142534616843	675.611183492975	1037.323282913200	1479.768303837259	500.590023467880	1070.789092408297	931.961085706890	644.675122474041	1052.568386123767	940.558107136756	369.294846407952	1063.056162982871	717.439837842345	622.756749958502	953.303787874112	627.819002378827	682.957767617185	1012.408321397169	558.686070689454	605.229292109429	988.866070737851	473.347270314854	608.800410487955	1124.546494794780	760.268586905739	402.405020173922	1076.558341993371	630.650692093065	323.783202678127	1182.554712585129	575.744724891244	384.454661209449	1208.137997380008	509.771534506064	383.167198745191	1193.067429003786	436.996867600847	371.355188714159	1127.692835169036	307.050922506883	321.059691888167	1215.466959800288	208.774460395578	375.240913958139	946.793720079493	391.673205468955	616.239936719337	858.780994396428	301.704005605619	679.539939016658	882.269349048264	201.416138995377	614.317109015608	725.882516371954	46.330862727280	587.390245678660	900.476529254937	97.428190811353	618.407708493895	811.436087684904	37.864358383941	658.719494931608	1019.431120944448	40.572579564692	641.091679576581	1128.599636635393	37.846207019823	412.164479371541	1202.935722982077	38.756891389034	331.921824580305	1279.092481674312	108.131547355476	355.607475504354	1410.599154183893	67.775607982754	329.402692067186	846.838305994107	1125.506355008112	239.640878069576	787.614128861258	869.456312107179	248.927445601447	1218.372368703229	1122.931550191128	784.934503248246	1401.448054642232	1248.932898954991	671.500364617656	
126	56.032142857143	845.922590106970	997.828360001939	529.083932455283	1019.404770773613	1422.003017263226	342.435103633441	1134.265794018204	1345.733363566246	493.206522713843	1066.054505514562	1421.392118620032	673.140495083380	1036.454951191367	1478.981180322377	497.947538690146	1071.883160305716	930.626013940973	642.253676642581	1053.772693298021	939.737379087305	367.042487293042	1063.900906052930	715.886138721342	620.653000460512	953.631718405953	626.639986256837	680.776171711905	1012.586928701678	556.997695496531	603.310614124111	988.110526025460	471.141750312779	606.725200621544	1126.390010416874	759.080112728043	400.976467891055	1077.808174976407	629.634181302851	323.371767647523	1183.214188919591	574.589615772458	384.981561469882	1207.518414392540	507.528183223551	384.287999409900	1191.965004376672	434.445285443528	372.006827995138	1125.115488809085	305.461975288561	321.199095690226	1210.383896836288	205.890008866089	376.660504246784	944.611842623036	390.060053337342	614.466156255717	855.180312358344	301.829570474845	678.337171556549	876.483578832899	200.941889098011	613.464991949925	717.726039084307	47.567199918016	587.463383081345	892.585111653651	97.490698757662	618.237243663462	803.285614609814	38.463963607080	658.747979987758	1011.279187620428	40.116036356598	641.204945658875	1119.383846459290	37.290287702194	412.933792914372	1194.051305094432	37.270134714838	332.866054017794	1271.803708055000	104.452667646436	357.755350343996	1402.736242306680	61.126496544117	331.759944689074	846.075260217269	1124.983940912396	236.867277946555	787.141264970233	868.654662150638	246.895940299222	1217.278160234797	1122.002596601350	783.140880298389	1396.440279504681	1252.099523207558	668.257873473961	
127	56.044000000000	846.863562705039	996.726826121849	526.667480402774	1018.804136780271	1421.196513365753	339.749710056405	1134.020112615033	1345.427401930111	490.589220579469	1065.431821543798	1420.935069047753	670.547357270041	1035.818852936878	1478.431843578348	495.148361578920	1072.954767788084	929.484106774434	639.755607777186	1054.775595820569	939.225700487397	364.717961369596	1064.695915431038	714.556466732131	618.403747011673	953.973414688970	625.664934559314	678.490398748917	1012.833077924621	555.520658952175	601.306305253687	987.556164494382	469.042988021247	604.663901606665	1128.301204724198	758.587166653525	399.677173080907	1079.641855397954	629.474719812437	322.595809355223	1184.206084001104	574.132015974170	385.321656782216	1207.263882701242	505.975171539136	385.018713925198	1191.233244707129	432.547731151134	372.311003019352	1123.027774602558	304.604848814772	320.650889204779	1205.506902557505	203.692144529047	377.585683747921	942.508862105879	388.640059025601	612.662749901425	851.664886805714	302.222649377078	677.116208355944	870.816173215597	200.738715492521	612.653067976882	709.625445147311	49.240949294438	587.600479870712	884.845430183009	97.628203744472	618.113854752891	795.197286118861	39.260636313474	658.803646415970	1003.170239303436	39.646495120261	641.312256490736	1110.448232981280	37.083904149880	413.168749511306	1185.457434574382	36.319638526022	333.308613671346	1264.489831642961	101.674630239050	359.309075617201	1394.945630307059	55.963342971710	333.584277060402	845.994104699792	1124.097200646199	233.945955477068	787.799322980112	867.388825458578	244.466519671268	1215.496860294039	1120.835232168815	781.694942708651	1391.524003066973	1254.022741002569	665.424744216503	
